<!DOCTYPE svg PUBLIC "-//W3C//DTD SVG 20010904//EN" "http://www.w3.org/TR/2001/REC-SVG-20010904/DTD/svg10.dtd">
<svg version="1.0" xmlns="http://www.w3.org/2000/svg" width="437px" height="437px" viewBox="0 0 4370 4370" preserveAspectRatio="xMidYMid meet">
<g id="layer1" fill="#343434" stroke="none">
 <path d="M2210 3888 c-82 -24 -109 -25 -221 -13 -65 7 -87 4 -145 -14 -77 -23 -166 -69 -172 -88 -2 -8 32 2 80 23 100 43 181 52 306 35 76 -11 101 -10 165 3 42 9 96 16 120 16 56 0 184 -33 255 -65 106 -49 70 3 -41 59 -82 41 -172 66 -232 65 -22 0 -74 -10 -115 -21z"/>
 <path d="M2108 3710 c-13 -8 -14 -15 -6 -38 26 -67 -30 -139 -160 -205 -104 -53 -122 -59 -142 -47 -20 13 14 48 108 111 39 27 72 51 72 53 0 2 -33 -12 -72 -32 -40 -21 -97 -45 -126 -55 -70 -24 -124 -73 -124 -112 0 -34 36 -69 67 -62 11 2 114 23 228 46 l208 43 112 -21 c62 -12 158 -26 213 -32 88 -9 106 -8 132 5 17 9 33 25 37 35 15 48 -54 111 -122 111 -16 0 -66 18 -112 40 -45 22 -85 40 -89 40 -4 0 39 -30 96 -66 83 -54 102 -70 102 -90 0 -33 -16 -31 -123 20 -160 75 -220 134 -215 209 3 52 -37 74 -84 47z"/>
 <path d="M1023 3230 c-123 -25 -220 -140 -259 -307 -19 -81 -14 -138 22 -273 78 -288 284 -545 514 -641 83 -35 180 -47 235 -29 109 36 205 200 205 351 0 71 -12 104 -54 149 -123 132 -213 281 -280 465 -80 217 -82 222 -142 250 -86 41 -158 51 -241 35z m433 -632 c92 -63 132 -156 104 -244 -52 -164 -235 -214 -355 -97 -91 88 -86 212 12 310 71 71 162 82 239 31z"/>
 <path d="M3225 3192 c-120 -36 -240 -121 -290 -206 -13 -22 -35 -74 -49 -115 -14 -40 -66 -148 -117 -238 -50 -91 -98 -186 -105 -211 -36 -119 5 -296 91 -390 117 -130 350 -73 571 140 185 179 324 424 340 603 11 110 -37 252 -112 335 -77 85 -208 118 -329 82z m-164 -514 c54 -18 114 -66 139 -109 18 -33 21 -52 18 -103 -4 -74 -40 -134 -106 -181 -38 -26 -53 -30 -107 -30 -54 0 -69 4 -106 30 -65 46 -100 109 -101 181 -2 159 123 260 263 212z"/>
 <path d="M3690 1243 c-14 -15 -48 -57 -74 -93 -74 -99 -252 -276 -331 -329 -38 -26 -105 -67 -147 -92 -43 -24 -78 -51 -78 -59 0 -32 273 -411 348 -483 58 -56 260 -105 378 -93 119 12 175 33 227 84 178 173 298 490 243 645 -62 173 -334 411 -506 442 -30 5 -39 2 -60 -22z"/>
 <path d="M486 1225 c-85 -51 -175 -126 -258 -213 -97 -104 -118 -148 -118 -244 0 -107 14 -169 65 -282 62 -138 101 -202 165 -267 76 -77 136 -99 275 -99 57 0 128 5 157 11 82 17 172 65 237 124 66 62 276 366 268 389 -3 7 -44 29 -91 49 -172 72 -463 326 -566 494 -25 40 -52 73 -61 73 -8 0 -41 -16 -73 -35z"/>
 </g>
<g id="layer2" fill="#ffffff" stroke="none">
 <path d="M1940 4245 c-224 -31 -440 -99 -665 -209 -355 -175 -627 -412 -838 -731 -127 -193 -192 -355 -229 -570 -34 -200 -11 -404 88 -790 45 -177 68 -243 153 -437 28 -64 51 -119 51 -121 0 -3 -26 -24 -58 -48 -120 -90 -287 -267 -360 -382 -123 -194 -8 -594 234 -816 94 -85 160 -106 339 -106 298 1 406 73 638 420 44 66 82 123 86 127 4 4 49 -8 101 -28 127 -48 290 -88 438 -109 96 -14 164 -16 310 -12 172 5 198 8 322 40 145 38 220 64 344 121 64 29 82 34 92 24 6 -7 54 -78 104 -158 117 -182 164 -244 241 -314 74 -67 118 -89 229 -117 70 -18 105 -21 219 -17 163 4 198 18 303 117 114 107 193 246 240 420 24 89 29 258 9 306 -51 123 -274 371 -443 494 l-87 63 33 66 c106 210 272 760 306 1010 45 332 -93 712 -372 1019 -374 412 -849 672 -1348 739 -129 17 -352 16 -480 -1z m485 -350 c101 -26 253 -110 233 -130 -3 -3 -30 6 -60 20 -71 32 -199 65 -255 65 -24 0 -78 -7 -120 -16 -64 -13 -89 -14 -165 -3 -125 17 -206 8 -306 -35 -48 -21 -82 -31 -80 -23 6 19 95 65 172 88 58 18 80 21 145 14 112 -12 139 -11 221 13 90 25 137 27 215 7z m-245 -185 c9 -6 13 -22 12 -47 -5 -75 55 -134 215 -209 107 -51 123 -53 123 -20 0 20 -19 36 -102 90 -57 36 -100 66 -96 66 4 0 44 -18 89 -40 46 -22 96 -40 112 -40 68 0 137 -63 122 -111 -4 -10 -20 -26 -37 -35 -26 -13 -44 -14 -132 -5 -55 6 -151 20 -213 32 l-112 21 -208 -43 c-114 -23 -217 -44 -228 -46 -31 -7 -67 28 -67 62 0 39 54 88 124 112 29 10 86 34 126 55 39 20 72 34 72 32 0 -2 -33 -26 -72 -53 -94 -63 -128 -98 -108 -111 20 -12 38 -6 142 47 130 66 186 138 160 205 -8 23 -7 30 6 38 22 12 53 12 72 0z m-1021 -480 c28 -5 75 -21 105 -35 60 -28 62 -33 142 -250 67 -184 157 -333 280 -465 42 -45 54 -78 54 -149 0 -151 -96 -315 -205 -351 -88 -29 -243 14 -368 103 -121 87 -254 251 -322 401 -37 81 -81 234 -91 316 -7 69 15 168 56 250 74 147 196 209 349 180z m2305 -54 c95 -46 161 -141 192 -273 20 -84 14 -162 -20 -262 -56 -162 -169 -332 -310 -469 -221 -213 -454 -270 -571 -140 -86 94 -127 271 -91 390 7 25 55 120 105 211 51 90 103 198 117 238 33 98 63 148 122 200 141 127 325 169 456 105z m374 -1941 c173 -79 367 -270 418 -412 55 -155 -65 -472 -243 -645 -52 -51 -108 -72 -227 -84 -118 -12 -320 37 -378 93 -75 72 -348 451 -348 483 0 8 35 35 78 59 42 25 109 66 147 92 79 53 257 230 331 329 85 114 94 122 134 115 19 -4 59 -17 88 -30z m-3218 -48 c103 -168 394 -422 566 -494 47 -20 88 -42 91 -49 8 -23 -202 -327 -268 -389 -65 -59 -155 -107 -237 -124 -29 -6 -100 -11 -157 -11 -139 0 -199 22 -275 99 -64 65 -103 129 -165 267 -51 113 -65 175 -65 282 0 96 21 140 118 244 110 116 286 248 331 248 9 0 36 -33 61 -73z"/>
 <path d="M1290 2617 c-43 -14 -106 -76 -131 -130 -37 -82 -20 -166 46 -230 120 -117 303 -67 355 97 28 88 -12 181 -104 244 -52 35 -99 40 -166 19z m122 -144 c24 -22 23 -40 -4 -49 -29 -8 -56 -32 -78 -66 -14 -24 -19 -26 -34 -15 -10 7 -20 31 -23 54 -5 37 -2 46 26 74 27 26 37 30 63 25 18 -3 40 -14 50 -23z m37 -136 c15 -19 -10 -53 -33 -44 -23 9 -21 57 3 57 10 0 24 -6 30 -13z"/>
 <path d="M2915 2674 c-77 -40 -118 -113 -117 -208 1 -72 36 -135 101 -181 37 -26 52 -30 106 -30 54 0 69 4 107 30 66 47 102 107 106 181 3 51 0 70 -18 103 -54 95 -200 149 -285 105z m137 -133 l32 -28 -25 -13 c-44 -23 -69 -53 -69 -82 0 -35 -7 -35 -42 -1 -39 37 -38 84 1 124 37 37 62 37 103 0z m52 -134 c8 -12 7 -21 -5 -33 -15 -14 -18 -14 -33 1 -12 13 -14 21 -5 36 12 23 27 21 43 -4z"/>
 </g>

</svg>